<mxfile host="app.diagrams.net" modified="2020-12-19T03:06:07.567Z" agent="5.0 (Windows NT 10.0; Win64; x64) AppleWebKit/537.36 (KHTML, like Gecko) Chrome/86.0.4240.198 Safari/537.36 OPR/72.0.3815.400" etag="f_7pbx9cVDR69MZwhB9h" version="14.1.1" type="github" pages="4">
  <diagram id="icDXDEbYLJzajUQ5eLel" name="Page-1">
    <mxGraphModel dx="998" dy="580" grid="1" gridSize="10" guides="1" tooltips="1" connect="1" arrows="1" fold="1" page="1" pageScale="1" pageWidth="827" pageHeight="1169" math="0" shadow="0">
      <root>
        <mxCell id="0" />
        <mxCell id="1" parent="0" />
        <mxCell id="i2OB3MysGO9Eci_P6Ddn-3" style="edgeStyle=orthogonalEdgeStyle;rounded=0;orthogonalLoop=1;jettySize=auto;html=1;exitX=0.5;exitY=1;exitDx=0;exitDy=0;entryX=0.5;entryY=0;entryDx=0;entryDy=0;" parent="1" source="Yj8eJEhWTZHfCMHVILuT-1" target="i2OB3MysGO9Eci_P6Ddn-2" edge="1">
          <mxGeometry relative="1" as="geometry" />
        </mxCell>
        <mxCell id="Yj8eJEhWTZHfCMHVILuT-1" value="Начало" style="ellipse;whiteSpace=wrap;html=1;" parent="1" vertex="1">
          <mxGeometry x="350" y="20" width="106" height="60" as="geometry" />
        </mxCell>
        <mxCell id="i2OB3MysGO9Eci_P6Ddn-5" style="edgeStyle=orthogonalEdgeStyle;rounded=0;orthogonalLoop=1;jettySize=auto;html=1;exitX=0.5;exitY=1;exitDx=0;exitDy=0;" parent="1" source="i2OB3MysGO9Eci_P6Ddn-2" target="i2OB3MysGO9Eci_P6Ddn-4" edge="1">
          <mxGeometry relative="1" as="geometry" />
        </mxCell>
        <mxCell id="i2OB3MysGO9Eci_P6Ddn-2" value="cout &amp;lt;&amp;lt; &quot;Введите размер массивов: &quot;" style="shape=parallelogram;perimeter=parallelogramPerimeter;whiteSpace=wrap;html=1;fixedSize=1;" parent="1" vertex="1">
          <mxGeometry x="339.5" y="110" width="127" height="60" as="geometry" />
        </mxCell>
        <mxCell id="i2OB3MysGO9Eci_P6Ddn-7" style="edgeStyle=orthogonalEdgeStyle;rounded=0;orthogonalLoop=1;jettySize=auto;html=1;exitX=0.5;exitY=1;exitDx=0;exitDy=0;entryX=0.5;entryY=0;entryDx=0;entryDy=0;" parent="1" source="i2OB3MysGO9Eci_P6Ddn-4" target="i2OB3MysGO9Eci_P6Ddn-6" edge="1">
          <mxGeometry relative="1" as="geometry" />
        </mxCell>
        <mxCell id="i2OB3MysGO9Eci_P6Ddn-4" value="cin &amp;gt;&amp;gt; n" style="shape=parallelogram;perimeter=parallelogramPerimeter;whiteSpace=wrap;html=1;fixedSize=1;" parent="1" vertex="1">
          <mxGeometry x="343" y="200" width="120" height="60" as="geometry" />
        </mxCell>
        <mxCell id="J20Hdjc19DOtC-NyURgM-1" style="edgeStyle=orthogonalEdgeStyle;rounded=0;orthogonalLoop=1;jettySize=auto;html=1;exitX=0.5;exitY=1;exitDx=0;exitDy=0;entryX=0.5;entryY=0;entryDx=0;entryDy=0;" parent="1" source="i2OB3MysGO9Eci_P6Ddn-6" target="i2OB3MysGO9Eci_P6Ddn-8" edge="1">
          <mxGeometry relative="1" as="geometry" />
        </mxCell>
        <mxCell id="i2OB3MysGO9Eci_P6Ddn-6" value="cout &amp;lt;&amp;lt; endl &amp;lt;&amp;lt; &quot;Входные данные массивов A и B: &quot;" style="shape=parallelogram;perimeter=parallelogramPerimeter;whiteSpace=wrap;html=1;fixedSize=1;" parent="1" vertex="1">
          <mxGeometry x="317.75" y="280" width="170.5" height="60" as="geometry" />
        </mxCell>
        <mxCell id="i2OB3MysGO9Eci_P6Ddn-11" style="edgeStyle=orthogonalEdgeStyle;rounded=0;orthogonalLoop=1;jettySize=auto;html=1;exitX=0.5;exitY=1;exitDx=0;exitDy=0;entryX=0.5;entryY=0;entryDx=0;entryDy=0;" parent="1" source="i2OB3MysGO9Eci_P6Ddn-8" target="i2OB3MysGO9Eci_P6Ddn-10" edge="1">
          <mxGeometry relative="1" as="geometry" />
        </mxCell>
        <mxCell id="i2OB3MysGO9Eci_P6Ddn-26" style="edgeStyle=orthogonalEdgeStyle;rounded=0;orthogonalLoop=1;jettySize=auto;html=1;exitX=1;exitY=0.5;exitDx=0;exitDy=0;" parent="1" source="i2OB3MysGO9Eci_P6Ddn-8" target="i2OB3MysGO9Eci_P6Ddn-25" edge="1">
          <mxGeometry relative="1" as="geometry">
            <Array as="points">
              <mxPoint x="520" y="400" />
              <mxPoint x="520" y="960" />
              <mxPoint x="403" y="960" />
            </Array>
          </mxGeometry>
        </mxCell>
        <mxCell id="i2OB3MysGO9Eci_P6Ddn-8" value="i = 0; i &amp;lt; n; i++" style="shape=hexagon;perimeter=hexagonPerimeter2;whiteSpace=wrap;html=1;fixedSize=1;" parent="1" vertex="1">
          <mxGeometry x="326.88" y="360" width="152.25" height="80" as="geometry" />
        </mxCell>
        <mxCell id="i2OB3MysGO9Eci_P6Ddn-13" style="edgeStyle=orthogonalEdgeStyle;rounded=0;orthogonalLoop=1;jettySize=auto;html=1;exitX=0.5;exitY=1;exitDx=0;exitDy=0;entryX=0.5;entryY=0;entryDx=0;entryDy=0;" parent="1" source="i2OB3MysGO9Eci_P6Ddn-10" target="i2OB3MysGO9Eci_P6Ddn-12" edge="1">
          <mxGeometry relative="1" as="geometry" />
        </mxCell>
        <mxCell id="i2OB3MysGO9Eci_P6Ddn-10" value="arrayA[i] = rand() % 100" style="rounded=0;whiteSpace=wrap;html=1;" parent="1" vertex="1">
          <mxGeometry x="339.51" y="470" width="126.99" height="60" as="geometry" />
        </mxCell>
        <mxCell id="i2OB3MysGO9Eci_P6Ddn-15" style="edgeStyle=orthogonalEdgeStyle;rounded=0;orthogonalLoop=1;jettySize=auto;html=1;exitX=0.5;exitY=1;exitDx=0;exitDy=0;entryX=0.5;entryY=0;entryDx=0;entryDy=0;" parent="1" source="i2OB3MysGO9Eci_P6Ddn-12" target="i2OB3MysGO9Eci_P6Ddn-14" edge="1">
          <mxGeometry relative="1" as="geometry" />
        </mxCell>
        <mxCell id="i2OB3MysGO9Eci_P6Ddn-12" value="random = rand() % 100" style="rounded=0;whiteSpace=wrap;html=1;" parent="1" vertex="1">
          <mxGeometry x="343" y="570" width="120" height="60" as="geometry" />
        </mxCell>
        <mxCell id="i2OB3MysGO9Eci_P6Ddn-16" style="edgeStyle=orthogonalEdgeStyle;rounded=0;orthogonalLoop=1;jettySize=auto;html=1;exitX=0;exitY=0.5;exitDx=0;exitDy=0;entryX=0;entryY=0.5;entryDx=0;entryDy=0;" parent="1" source="i2OB3MysGO9Eci_P6Ddn-14" target="i2OB3MysGO9Eci_P6Ddn-12" edge="1">
          <mxGeometry relative="1" as="geometry" />
        </mxCell>
        <mxCell id="i2OB3MysGO9Eci_P6Ddn-18" style="edgeStyle=orthogonalEdgeStyle;rounded=0;orthogonalLoop=1;jettySize=auto;html=1;exitX=0.5;exitY=1;exitDx=0;exitDy=0;entryX=0.5;entryY=0;entryDx=0;entryDy=0;" parent="1" source="i2OB3MysGO9Eci_P6Ddn-14" target="i2OB3MysGO9Eci_P6Ddn-17" edge="1">
          <mxGeometry relative="1" as="geometry" />
        </mxCell>
        <mxCell id="i2OB3MysGO9Eci_P6Ddn-14" value="!checkValue(arrayB, 100, random)" style="rhombus;whiteSpace=wrap;html=1;" parent="1" vertex="1">
          <mxGeometry x="335.25" y="660" width="135.49" height="90" as="geometry" />
        </mxCell>
        <mxCell id="i2OB3MysGO9Eci_P6Ddn-22" style="edgeStyle=orthogonalEdgeStyle;rounded=0;orthogonalLoop=1;jettySize=auto;html=1;exitX=0.5;exitY=1;exitDx=0;exitDy=0;entryX=0.5;entryY=0;entryDx=0;entryDy=0;" parent="1" source="i2OB3MysGO9Eci_P6Ddn-17" target="i2OB3MysGO9Eci_P6Ddn-21" edge="1">
          <mxGeometry relative="1" as="geometry" />
        </mxCell>
        <mxCell id="i2OB3MysGO9Eci_P6Ddn-17" value="arrayB[i] = random" style="rounded=0;whiteSpace=wrap;html=1;" parent="1" vertex="1">
          <mxGeometry x="339.51" y="780" width="126.99" height="60" as="geometry" />
        </mxCell>
        <mxCell id="i2OB3MysGO9Eci_P6Ddn-19" value="да" style="text;html=1;align=center;verticalAlign=middle;resizable=0;points=[];autosize=1;" parent="1" vertex="1">
          <mxGeometry x="313" y="680" width="30" height="20" as="geometry" />
        </mxCell>
        <mxCell id="i2OB3MysGO9Eci_P6Ddn-20" value="нет" style="text;html=1;align=center;verticalAlign=middle;resizable=0;points=[];autosize=1;" parent="1" vertex="1">
          <mxGeometry x="414" y="750" width="30" height="20" as="geometry" />
        </mxCell>
        <mxCell id="i2OB3MysGO9Eci_P6Ddn-24" style="edgeStyle=orthogonalEdgeStyle;rounded=0;orthogonalLoop=1;jettySize=auto;html=1;exitX=0.5;exitY=1;exitDx=0;exitDy=0;entryX=0;entryY=0.5;entryDx=0;entryDy=0;" parent="1" source="i2OB3MysGO9Eci_P6Ddn-21" target="i2OB3MysGO9Eci_P6Ddn-8" edge="1">
          <mxGeometry relative="1" as="geometry">
            <Array as="points">
              <mxPoint x="403" y="950" />
              <mxPoint x="260" y="950" />
              <mxPoint x="260" y="400" />
            </Array>
          </mxGeometry>
        </mxCell>
        <mxCell id="i2OB3MysGO9Eci_P6Ddn-21" value="cout &amp;lt;&amp;lt;setw(2)&amp;lt;&amp;lt; arrayA[i]&amp;lt;&amp;lt;setw(4)&amp;lt;&amp;lt;arrayB[i]&amp;lt;&amp;lt;endl" style="shape=parallelogram;perimeter=parallelogramPerimeter;whiteSpace=wrap;html=1;fixedSize=1;" parent="1" vertex="1">
          <mxGeometry x="317.76" y="870" width="170.5" height="60" as="geometry" />
        </mxCell>
        <mxCell id="i2OB3MysGO9Eci_P6Ddn-23" value="да" style="text;html=1;align=center;verticalAlign=middle;resizable=0;points=[];autosize=1;" parent="1" vertex="1">
          <mxGeometry x="405" y="440" width="30" height="20" as="geometry" />
        </mxCell>
        <mxCell id="i2OB3MysGO9Eci_P6Ddn-29" style="edgeStyle=orthogonalEdgeStyle;rounded=0;orthogonalLoop=1;jettySize=auto;html=1;exitX=0.5;exitY=1;exitDx=0;exitDy=0;entryX=0.5;entryY=0;entryDx=0;entryDy=0;" parent="1" source="i2OB3MysGO9Eci_P6Ddn-25" target="i2OB3MysGO9Eci_P6Ddn-28" edge="1">
          <mxGeometry relative="1" as="geometry" />
        </mxCell>
        <mxCell id="i2OB3MysGO9Eci_P6Ddn-25" value="Инициализация массива arrayC" style="rounded=0;whiteSpace=wrap;html=1;" parent="1" vertex="1">
          <mxGeometry x="342.99" y="990" width="120" height="60" as="geometry" />
        </mxCell>
        <mxCell id="i2OB3MysGO9Eci_P6Ddn-34" style="edgeStyle=orthogonalEdgeStyle;rounded=0;orthogonalLoop=1;jettySize=auto;html=1;exitX=0.5;exitY=1;exitDx=0;exitDy=0;entryX=0.5;entryY=0;entryDx=0;entryDy=0;" parent="1" source="i2OB3MysGO9Eci_P6Ddn-28" target="i2OB3MysGO9Eci_P6Ddn-31" edge="1">
          <mxGeometry relative="1" as="geometry" />
        </mxCell>
        <mxCell id="i2OB3MysGO9Eci_P6Ddn-28" value="BubbleSort(arrayC,n)" style="shape=process;whiteSpace=wrap;html=1;backgroundOutline=1;" parent="1" vertex="1">
          <mxGeometry x="324.48" y="1070" width="157.01" height="60" as="geometry" />
        </mxCell>
        <mxCell id="i2OB3MysGO9Eci_P6Ddn-35" style="edgeStyle=orthogonalEdgeStyle;rounded=0;orthogonalLoop=1;jettySize=auto;html=1;exitX=0.5;exitY=1;exitDx=0;exitDy=0;entryX=0.5;entryY=0;entryDx=0;entryDy=0;" parent="1" source="i2OB3MysGO9Eci_P6Ddn-31" target="i2OB3MysGO9Eci_P6Ddn-32" edge="1">
          <mxGeometry relative="1" as="geometry" />
        </mxCell>
        <mxCell id="i2OB3MysGO9Eci_P6Ddn-31" value="ArrayDisplay(arrayA,n)" style="shape=process;whiteSpace=wrap;html=1;backgroundOutline=1;" parent="1" vertex="1">
          <mxGeometry x="324.48" y="1160" width="157.01" height="60" as="geometry" />
        </mxCell>
        <mxCell id="i2OB3MysGO9Eci_P6Ddn-36" style="edgeStyle=orthogonalEdgeStyle;rounded=0;orthogonalLoop=1;jettySize=auto;html=1;exitX=0.5;exitY=1;exitDx=0;exitDy=0;entryX=0.5;entryY=0;entryDx=0;entryDy=0;" parent="1" source="i2OB3MysGO9Eci_P6Ddn-32" target="i2OB3MysGO9Eci_P6Ddn-33" edge="1">
          <mxGeometry relative="1" as="geometry" />
        </mxCell>
        <mxCell id="i2OB3MysGO9Eci_P6Ddn-32" value="ArrayDisplay(arrayB,n)" style="shape=process;whiteSpace=wrap;html=1;backgroundOutline=1;" parent="1" vertex="1">
          <mxGeometry x="324.48" y="1250" width="157.01" height="60" as="geometry" />
        </mxCell>
        <mxCell id="i2OB3MysGO9Eci_P6Ddn-39" style="edgeStyle=orthogonalEdgeStyle;rounded=0;orthogonalLoop=1;jettySize=auto;html=1;exitX=0.5;exitY=1;exitDx=0;exitDy=0;entryX=0.5;entryY=0;entryDx=0;entryDy=0;" parent="1" source="i2OB3MysGO9Eci_P6Ddn-33" target="i2OB3MysGO9Eci_P6Ddn-38" edge="1">
          <mxGeometry relative="1" as="geometry" />
        </mxCell>
        <mxCell id="i2OB3MysGO9Eci_P6Ddn-33" value="ArrayDisplay(arrayC,n)" style="shape=process;whiteSpace=wrap;html=1;backgroundOutline=1;" parent="1" vertex="1">
          <mxGeometry x="324.5" y="1340" width="157.01" height="60" as="geometry" />
        </mxCell>
        <mxCell id="i2OB3MysGO9Eci_P6Ddn-37" value="нет" style="text;html=1;align=center;verticalAlign=middle;resizable=0;points=[];autosize=1;" parent="1" vertex="1">
          <mxGeometry x="479.13" y="370" width="30" height="20" as="geometry" />
        </mxCell>
        <mxCell id="i2OB3MysGO9Eci_P6Ddn-38" value="Конец" style="ellipse;whiteSpace=wrap;html=1;" parent="1" vertex="1">
          <mxGeometry x="349.99" y="1430" width="106" height="60" as="geometry" />
        </mxCell>
      </root>
    </mxGraphModel>
  </diagram>
  <diagram id="MBABMFuD9TOYEXXSPe1_" name="Page-2">
    <mxGraphModel dx="998" dy="580" grid="1" gridSize="10" guides="1" tooltips="1" connect="1" arrows="1" fold="1" page="1" pageScale="1" pageWidth="827" pageHeight="1169" math="0" shadow="0">
      <root>
        <mxCell id="sVpGSZDECkDImGMf8aWo-0" />
        <mxCell id="sVpGSZDECkDImGMf8aWo-1" parent="sVpGSZDECkDImGMf8aWo-0" />
        <mxCell id="hPYkXYT6g1afrY_bp9ZZ-0" style="edgeStyle=orthogonalEdgeStyle;rounded=0;orthogonalLoop=1;jettySize=auto;html=1;exitX=0.5;exitY=1;exitDx=0;exitDy=0;entryX=0.5;entryY=0;entryDx=0;entryDy=0;" parent="sVpGSZDECkDImGMf8aWo-1" source="FGe22n2yKx3NE8EXVJ8Z-0" target="FGe22n2yKx3NE8EXVJ8Z-1" edge="1">
          <mxGeometry relative="1" as="geometry" />
        </mxCell>
        <mxCell id="FGe22n2yKx3NE8EXVJ8Z-0" value="checkValue(double* arr, int N, double value)" style="ellipse;whiteSpace=wrap;html=1;" parent="sVpGSZDECkDImGMf8aWo-1" vertex="1">
          <mxGeometry x="350" y="30" width="120" height="80" as="geometry" />
        </mxCell>
        <mxCell id="hPYkXYT6g1afrY_bp9ZZ-2" style="edgeStyle=orthogonalEdgeStyle;rounded=0;orthogonalLoop=1;jettySize=auto;html=1;exitX=0.5;exitY=1;exitDx=0;exitDy=0;entryX=0.5;entryY=0;entryDx=0;entryDy=0;" parent="sVpGSZDECkDImGMf8aWo-1" source="FGe22n2yKx3NE8EXVJ8Z-1" target="hPYkXYT6g1afrY_bp9ZZ-1" edge="1">
          <mxGeometry relative="1" as="geometry" />
        </mxCell>
        <mxCell id="hPYkXYT6g1afrY_bp9ZZ-12" style="edgeStyle=orthogonalEdgeStyle;rounded=0;orthogonalLoop=1;jettySize=auto;html=1;exitX=1;exitY=0.5;exitDx=0;exitDy=0;entryX=0.5;entryY=0;entryDx=0;entryDy=0;" parent="sVpGSZDECkDImGMf8aWo-1" source="FGe22n2yKx3NE8EXVJ8Z-1" target="hPYkXYT6g1afrY_bp9ZZ-6" edge="1">
          <mxGeometry relative="1" as="geometry">
            <Array as="points">
              <mxPoint x="490" y="170" />
              <mxPoint x="490" y="470" />
              <mxPoint x="403" y="470" />
            </Array>
          </mxGeometry>
        </mxCell>
        <mxCell id="FGe22n2yKx3NE8EXVJ8Z-1" value="i = 0; i &amp;lt; N; i++" style="shape=hexagon;perimeter=hexagonPerimeter2;whiteSpace=wrap;html=1;fixedSize=1;" parent="sVpGSZDECkDImGMf8aWo-1" vertex="1">
          <mxGeometry x="350" y="130" width="120" height="80" as="geometry" />
        </mxCell>
        <mxCell id="hPYkXYT6g1afrY_bp9ZZ-4" style="edgeStyle=orthogonalEdgeStyle;rounded=0;orthogonalLoop=1;jettySize=auto;html=1;exitX=0.5;exitY=1;exitDx=0;exitDy=0;entryX=0.5;entryY=0;entryDx=0;entryDy=0;" parent="sVpGSZDECkDImGMf8aWo-1" source="hPYkXYT6g1afrY_bp9ZZ-1" target="hPYkXYT6g1afrY_bp9ZZ-3" edge="1">
          <mxGeometry relative="1" as="geometry" />
        </mxCell>
        <mxCell id="hPYkXYT6g1afrY_bp9ZZ-5" style="edgeStyle=orthogonalEdgeStyle;rounded=0;orthogonalLoop=1;jettySize=auto;html=1;exitX=0;exitY=0.5;exitDx=0;exitDy=0;entryX=0;entryY=0.5;entryDx=0;entryDy=0;" parent="sVpGSZDECkDImGMf8aWo-1" source="hPYkXYT6g1afrY_bp9ZZ-1" target="FGe22n2yKx3NE8EXVJ8Z-1" edge="1">
          <mxGeometry relative="1" as="geometry" />
        </mxCell>
        <mxCell id="hPYkXYT6g1afrY_bp9ZZ-1" value="arr[i] == value" style="rhombus;whiteSpace=wrap;html=1;" parent="sVpGSZDECkDImGMf8aWo-1" vertex="1">
          <mxGeometry x="357" y="230" width="106" height="80" as="geometry" />
        </mxCell>
        <mxCell id="hPYkXYT6g1afrY_bp9ZZ-13" style="edgeStyle=orthogonalEdgeStyle;rounded=0;orthogonalLoop=1;jettySize=auto;html=1;exitX=0.5;exitY=1;exitDx=0;exitDy=0;entryX=0.5;entryY=0;entryDx=0;entryDy=0;" parent="sVpGSZDECkDImGMf8aWo-1" source="hPYkXYT6g1afrY_bp9ZZ-3" target="hPYkXYT6g1afrY_bp9ZZ-9" edge="1">
          <mxGeometry relative="1" as="geometry">
            <Array as="points">
              <mxPoint x="410" y="440" />
              <mxPoint x="320" y="440" />
              <mxPoint x="320" y="590" />
              <mxPoint x="403" y="590" />
            </Array>
          </mxGeometry>
        </mxCell>
        <mxCell id="hPYkXYT6g1afrY_bp9ZZ-3" value="return false" style="rounded=0;whiteSpace=wrap;html=1;" parent="sVpGSZDECkDImGMf8aWo-1" vertex="1">
          <mxGeometry x="350" y="340" width="120" height="60" as="geometry" />
        </mxCell>
        <mxCell id="hPYkXYT6g1afrY_bp9ZZ-10" style="edgeStyle=orthogonalEdgeStyle;rounded=0;orthogonalLoop=1;jettySize=auto;html=1;exitX=0.5;exitY=1;exitDx=0;exitDy=0;entryX=0.5;entryY=0;entryDx=0;entryDy=0;" parent="sVpGSZDECkDImGMf8aWo-1" source="hPYkXYT6g1afrY_bp9ZZ-6" target="hPYkXYT6g1afrY_bp9ZZ-9" edge="1">
          <mxGeometry relative="1" as="geometry" />
        </mxCell>
        <mxCell id="hPYkXYT6g1afrY_bp9ZZ-6" value="return true" style="rounded=0;whiteSpace=wrap;html=1;" parent="sVpGSZDECkDImGMf8aWo-1" vertex="1">
          <mxGeometry x="343" y="500" width="120" height="60" as="geometry" />
        </mxCell>
        <mxCell id="hPYkXYT6g1afrY_bp9ZZ-8" value="да" style="text;html=1;align=center;verticalAlign=middle;resizable=0;points=[];autosize=1;" parent="sVpGSZDECkDImGMf8aWo-1" vertex="1">
          <mxGeometry x="414" y="310" width="30" height="20" as="geometry" />
        </mxCell>
        <mxCell id="hPYkXYT6g1afrY_bp9ZZ-9" value="Выход" style="ellipse;whiteSpace=wrap;html=1;" parent="sVpGSZDECkDImGMf8aWo-1" vertex="1">
          <mxGeometry x="343" y="620" width="120" height="80" as="geometry" />
        </mxCell>
        <mxCell id="hPYkXYT6g1afrY_bp9ZZ-14" value="да" style="text;html=1;align=center;verticalAlign=middle;resizable=0;points=[];autosize=1;" parent="sVpGSZDECkDImGMf8aWo-1" vertex="1">
          <mxGeometry x="414" y="210" width="30" height="20" as="geometry" />
        </mxCell>
        <mxCell id="hPYkXYT6g1afrY_bp9ZZ-15" value="нет" style="text;html=1;align=center;verticalAlign=middle;resizable=0;points=[];autosize=1;" parent="sVpGSZDECkDImGMf8aWo-1" vertex="1">
          <mxGeometry x="340" y="240" width="30" height="20" as="geometry" />
        </mxCell>
        <mxCell id="hPYkXYT6g1afrY_bp9ZZ-16" value="нет" style="text;html=1;align=center;verticalAlign=middle;resizable=0;points=[];autosize=1;" parent="sVpGSZDECkDImGMf8aWo-1" vertex="1">
          <mxGeometry x="463" y="140" width="30" height="20" as="geometry" />
        </mxCell>
      </root>
    </mxGraphModel>
  </diagram>
  <diagram id="kMX-vGRd-eG27wHnNBt7" name="Page-3">
    <mxGraphModel dx="998" dy="580" grid="1" gridSize="10" guides="1" tooltips="1" connect="1" arrows="1" fold="1" page="1" pageScale="1" pageWidth="827" pageHeight="1169" math="0" shadow="0">
      <root>
        <mxCell id="p8WaZu_crC2pgw28EAOm-0" />
        <mxCell id="p8WaZu_crC2pgw28EAOm-1" parent="p8WaZu_crC2pgw28EAOm-0" />
        <mxCell id="p8WaZu_crC2pgw28EAOm-4" style="edgeStyle=orthogonalEdgeStyle;rounded=0;orthogonalLoop=1;jettySize=auto;html=1;exitX=0.5;exitY=1;exitDx=0;exitDy=0;entryX=0.5;entryY=0;entryDx=0;entryDy=0;" parent="p8WaZu_crC2pgw28EAOm-1" source="p8WaZu_crC2pgw28EAOm-2" target="p8WaZu_crC2pgw28EAOm-3" edge="1">
          <mxGeometry relative="1" as="geometry" />
        </mxCell>
        <mxCell id="p8WaZu_crC2pgw28EAOm-2" value="BubbleSort(double* arr, int N)" style="ellipse;whiteSpace=wrap;html=1;" parent="p8WaZu_crC2pgw28EAOm-1" vertex="1">
          <mxGeometry x="360" y="30" width="120" height="80" as="geometry" />
        </mxCell>
        <mxCell id="p8WaZu_crC2pgw28EAOm-6" style="edgeStyle=orthogonalEdgeStyle;rounded=0;orthogonalLoop=1;jettySize=auto;html=1;exitX=0.5;exitY=1;exitDx=0;exitDy=0;entryX=0.5;entryY=0;entryDx=0;entryDy=0;" parent="p8WaZu_crC2pgw28EAOm-1" source="p8WaZu_crC2pgw28EAOm-3" target="p8WaZu_crC2pgw28EAOm-5" edge="1">
          <mxGeometry relative="1" as="geometry" />
        </mxCell>
        <mxCell id="36cz3WuDazLTnUJk7orj-2" style="edgeStyle=orthogonalEdgeStyle;rounded=0;orthogonalLoop=1;jettySize=auto;html=1;exitX=1;exitY=0.5;exitDx=0;exitDy=0;" parent="p8WaZu_crC2pgw28EAOm-1" source="p8WaZu_crC2pgw28EAOm-3" target="36cz3WuDazLTnUJk7orj-1" edge="1">
          <mxGeometry relative="1" as="geometry">
            <Array as="points">
              <mxPoint x="540" y="180" />
              <mxPoint x="540" y="570" />
              <mxPoint x="420" y="570" />
            </Array>
          </mxGeometry>
        </mxCell>
        <mxCell id="p8WaZu_crC2pgw28EAOm-3" value="i = 0; i &amp;lt; N - 1; i++" style="shape=hexagon;perimeter=hexagonPerimeter2;whiteSpace=wrap;html=1;fixedSize=1;" parent="p8WaZu_crC2pgw28EAOm-1" vertex="1">
          <mxGeometry x="360" y="140" width="120" height="80" as="geometry" />
        </mxCell>
        <mxCell id="p8WaZu_crC2pgw28EAOm-9" style="edgeStyle=orthogonalEdgeStyle;rounded=0;orthogonalLoop=1;jettySize=auto;html=1;exitX=0.5;exitY=1;exitDx=0;exitDy=0;entryX=0.5;entryY=0;entryDx=0;entryDy=0;" parent="p8WaZu_crC2pgw28EAOm-1" source="p8WaZu_crC2pgw28EAOm-5" target="p8WaZu_crC2pgw28EAOm-8" edge="1">
          <mxGeometry relative="1" as="geometry" />
        </mxCell>
        <mxCell id="p8WaZu_crC2pgw28EAOm-11" style="edgeStyle=orthogonalEdgeStyle;rounded=0;orthogonalLoop=1;jettySize=auto;html=1;exitX=0;exitY=0.5;exitDx=0;exitDy=0;entryX=0;entryY=0.5;entryDx=0;entryDy=0;" parent="p8WaZu_crC2pgw28EAOm-1" source="p8WaZu_crC2pgw28EAOm-5" target="p8WaZu_crC2pgw28EAOm-3" edge="1">
          <mxGeometry relative="1" as="geometry" />
        </mxCell>
        <mxCell id="p8WaZu_crC2pgw28EAOm-5" value="j = 0; j &amp;lt; N - i - 1; j++" style="shape=hexagon;perimeter=hexagonPerimeter2;whiteSpace=wrap;html=1;fixedSize=1;" parent="p8WaZu_crC2pgw28EAOm-1" vertex="1">
          <mxGeometry x="360" y="250" width="120" height="80" as="geometry" />
        </mxCell>
        <mxCell id="p8WaZu_crC2pgw28EAOm-7" value="да" style="text;html=1;align=center;verticalAlign=middle;resizable=0;points=[];autosize=1;" parent="p8WaZu_crC2pgw28EAOm-1" vertex="1">
          <mxGeometry x="420" y="220" width="30" height="20" as="geometry" />
        </mxCell>
        <mxCell id="p8WaZu_crC2pgw28EAOm-15" style="edgeStyle=orthogonalEdgeStyle;rounded=0;orthogonalLoop=1;jettySize=auto;html=1;exitX=0.5;exitY=1;exitDx=0;exitDy=0;entryX=0.5;entryY=0;entryDx=0;entryDy=0;" parent="p8WaZu_crC2pgw28EAOm-1" source="p8WaZu_crC2pgw28EAOm-8" target="p8WaZu_crC2pgw28EAOm-14" edge="1">
          <mxGeometry relative="1" as="geometry" />
        </mxCell>
        <mxCell id="p8WaZu_crC2pgw28EAOm-19" style="edgeStyle=orthogonalEdgeStyle;rounded=0;orthogonalLoop=1;jettySize=auto;html=1;exitX=1;exitY=0.5;exitDx=0;exitDy=0;entryX=1;entryY=0.5;entryDx=0;entryDy=0;" parent="p8WaZu_crC2pgw28EAOm-1" source="p8WaZu_crC2pgw28EAOm-8" target="p8WaZu_crC2pgw28EAOm-5" edge="1">
          <mxGeometry relative="1" as="geometry">
            <Array as="points">
              <mxPoint x="510" y="400" />
              <mxPoint x="510" y="290" />
            </Array>
          </mxGeometry>
        </mxCell>
        <mxCell id="p8WaZu_crC2pgw28EAOm-8" value="arr[j] &amp;gt; arr[j + 1]" style="rhombus;whiteSpace=wrap;html=1;" parent="p8WaZu_crC2pgw28EAOm-1" vertex="1">
          <mxGeometry x="370" y="360" width="100" height="80" as="geometry" />
        </mxCell>
        <mxCell id="p8WaZu_crC2pgw28EAOm-10" value="да" style="text;html=1;align=center;verticalAlign=middle;resizable=0;points=[];autosize=1;" parent="p8WaZu_crC2pgw28EAOm-1" vertex="1">
          <mxGeometry x="420" y="330" width="30" height="20" as="geometry" />
        </mxCell>
        <mxCell id="p8WaZu_crC2pgw28EAOm-12" value="нет" style="text;html=1;align=center;verticalAlign=middle;resizable=0;points=[];autosize=1;" parent="p8WaZu_crC2pgw28EAOm-1" vertex="1">
          <mxGeometry x="340" y="260" width="30" height="20" as="geometry" />
        </mxCell>
        <mxCell id="36cz3WuDazLTnUJk7orj-0" style="edgeStyle=orthogonalEdgeStyle;rounded=0;orthogonalLoop=1;jettySize=auto;html=1;exitX=0.5;exitY=1;exitDx=0;exitDy=0;entryX=1;entryY=0.5;entryDx=0;entryDy=0;" parent="p8WaZu_crC2pgw28EAOm-1" source="p8WaZu_crC2pgw28EAOm-14" target="p8WaZu_crC2pgw28EAOm-5" edge="1">
          <mxGeometry relative="1" as="geometry">
            <Array as="points">
              <mxPoint x="420" y="550" />
              <mxPoint x="510" y="550" />
              <mxPoint x="510" y="290" />
            </Array>
          </mxGeometry>
        </mxCell>
        <mxCell id="p8WaZu_crC2pgw28EAOm-14" value="swap(arr[j], arr[j + 1])" style="shape=process;whiteSpace=wrap;html=1;backgroundOutline=1;" parent="p8WaZu_crC2pgw28EAOm-1" vertex="1">
          <mxGeometry x="345" y="470" width="150" height="60" as="geometry" />
        </mxCell>
        <mxCell id="p8WaZu_crC2pgw28EAOm-16" value="да" style="text;html=1;align=center;verticalAlign=middle;resizable=0;points=[];autosize=1;" parent="p8WaZu_crC2pgw28EAOm-1" vertex="1">
          <mxGeometry x="430" y="440" width="30" height="20" as="geometry" />
        </mxCell>
        <mxCell id="p8WaZu_crC2pgw28EAOm-18" value="нет" style="text;html=1;align=center;verticalAlign=middle;resizable=0;points=[];autosize=1;" parent="p8WaZu_crC2pgw28EAOm-1" vertex="1">
          <mxGeometry x="465" y="380" width="30" height="20" as="geometry" />
        </mxCell>
        <mxCell id="36cz3WuDazLTnUJk7orj-1" value="Выход" style="ellipse;whiteSpace=wrap;html=1;" parent="p8WaZu_crC2pgw28EAOm-1" vertex="1">
          <mxGeometry x="360" y="600" width="120" height="80" as="geometry" />
        </mxCell>
        <mxCell id="36cz3WuDazLTnUJk7orj-3" value="нет" style="text;html=1;align=center;verticalAlign=middle;resizable=0;points=[];autosize=1;" parent="p8WaZu_crC2pgw28EAOm-1" vertex="1">
          <mxGeometry x="480" y="180" width="30" height="20" as="geometry" />
        </mxCell>
      </root>
    </mxGraphModel>
  </diagram>
  <diagram id="8dsfh-sfEZqPZAblUm89" name="Page-4">
    <mxGraphModel dx="998" dy="580" grid="1" gridSize="10" guides="1" tooltips="1" connect="1" arrows="1" fold="1" page="1" pageScale="1" pageWidth="827" pageHeight="1169" math="0" shadow="0">
      <root>
        <mxCell id="SHQLyu6EkZmR7ChMychR-0" />
        <mxCell id="SHQLyu6EkZmR7ChMychR-1" parent="SHQLyu6EkZmR7ChMychR-0" />
        <mxCell id="SHQLyu6EkZmR7ChMychR-4" style="edgeStyle=orthogonalEdgeStyle;rounded=0;orthogonalLoop=1;jettySize=auto;html=1;exitX=0.5;exitY=1;exitDx=0;exitDy=0;entryX=0.5;entryY=0;entryDx=0;entryDy=0;" parent="SHQLyu6EkZmR7ChMychR-1" source="SHQLyu6EkZmR7ChMychR-2" target="SHQLyu6EkZmR7ChMychR-3" edge="1">
          <mxGeometry relative="1" as="geometry" />
        </mxCell>
        <mxCell id="SHQLyu6EkZmR7ChMychR-2" value="DisplayArray(double *arr, int n)" style="ellipse;whiteSpace=wrap;html=1;" parent="SHQLyu6EkZmR7ChMychR-1" vertex="1">
          <mxGeometry x="370" y="50" width="120" height="80" as="geometry" />
        </mxCell>
        <mxCell id="SHQLyu6EkZmR7ChMychR-7" style="edgeStyle=orthogonalEdgeStyle;rounded=0;orthogonalLoop=1;jettySize=auto;html=1;exitX=0.5;exitY=1;exitDx=0;exitDy=0;entryX=0.5;entryY=0;entryDx=0;entryDy=0;" parent="SHQLyu6EkZmR7ChMychR-1" source="SHQLyu6EkZmR7ChMychR-3" target="SHQLyu6EkZmR7ChMychR-6" edge="1">
          <mxGeometry relative="1" as="geometry" />
        </mxCell>
        <mxCell id="SHQLyu6EkZmR7ChMychR-10" style="edgeStyle=orthogonalEdgeStyle;rounded=0;orthogonalLoop=1;jettySize=auto;html=1;exitX=1;exitY=0.5;exitDx=0;exitDy=0;" parent="SHQLyu6EkZmR7ChMychR-1" source="SHQLyu6EkZmR7ChMychR-3" target="SHQLyu6EkZmR7ChMychR-9" edge="1">
          <mxGeometry relative="1" as="geometry">
            <Array as="points">
              <mxPoint x="510" y="200" />
              <mxPoint x="510" y="360" />
              <mxPoint x="430" y="360" />
            </Array>
          </mxGeometry>
        </mxCell>
        <mxCell id="SHQLyu6EkZmR7ChMychR-3" value="i = 0; i &amp;lt; n; i++" style="shape=hexagon;perimeter=hexagonPerimeter2;whiteSpace=wrap;html=1;fixedSize=1;" parent="SHQLyu6EkZmR7ChMychR-1" vertex="1">
          <mxGeometry x="370" y="160" width="120" height="80" as="geometry" />
        </mxCell>
        <mxCell id="SHQLyu6EkZmR7ChMychR-15" style="edgeStyle=orthogonalEdgeStyle;rounded=0;orthogonalLoop=1;jettySize=auto;html=1;exitX=0.5;exitY=1;exitDx=0;exitDy=0;entryX=0;entryY=0.5;entryDx=0;entryDy=0;" parent="SHQLyu6EkZmR7ChMychR-1" source="SHQLyu6EkZmR7ChMychR-6" target="SHQLyu6EkZmR7ChMychR-3" edge="1">
          <mxGeometry relative="1" as="geometry" />
        </mxCell>
        <mxCell id="SHQLyu6EkZmR7ChMychR-6" value="cout &amp;lt;&amp;lt; arr[i] &amp;lt;&amp;lt; &quot; &quot;" style="shape=parallelogram;perimeter=parallelogramPerimeter;whiteSpace=wrap;html=1;fixedSize=1;" parent="SHQLyu6EkZmR7ChMychR-1" vertex="1">
          <mxGeometry x="370" y="270" width="120" height="60" as="geometry" />
        </mxCell>
        <mxCell id="SHQLyu6EkZmR7ChMychR-8" value="да" style="text;html=1;align=center;verticalAlign=middle;resizable=0;points=[];autosize=1;" parent="SHQLyu6EkZmR7ChMychR-1" vertex="1">
          <mxGeometry x="425" y="240" width="30" height="20" as="geometry" />
        </mxCell>
        <mxCell id="SHQLyu6EkZmR7ChMychR-12" style="edgeStyle=orthogonalEdgeStyle;rounded=0;orthogonalLoop=1;jettySize=auto;html=1;exitX=0.5;exitY=1;exitDx=0;exitDy=0;entryX=0.5;entryY=0;entryDx=0;entryDy=0;" parent="SHQLyu6EkZmR7ChMychR-1" source="SHQLyu6EkZmR7ChMychR-9" target="SHQLyu6EkZmR7ChMychR-11" edge="1">
          <mxGeometry relative="1" as="geometry" />
        </mxCell>
        <mxCell id="SHQLyu6EkZmR7ChMychR-9" value="cout &amp;lt;&amp;lt; endl" style="shape=parallelogram;perimeter=parallelogramPerimeter;whiteSpace=wrap;html=1;fixedSize=1;" parent="SHQLyu6EkZmR7ChMychR-1" vertex="1">
          <mxGeometry x="370" y="390" width="120" height="60" as="geometry" />
        </mxCell>
        <mxCell id="SHQLyu6EkZmR7ChMychR-11" value="Выход" style="ellipse;whiteSpace=wrap;html=1;" parent="SHQLyu6EkZmR7ChMychR-1" vertex="1">
          <mxGeometry x="370" y="490" width="120" height="80" as="geometry" />
        </mxCell>
        <mxCell id="SHQLyu6EkZmR7ChMychR-13" value="Нет" style="text;html=1;align=center;verticalAlign=middle;resizable=0;points=[];autosize=1;" parent="SHQLyu6EkZmR7ChMychR-1" vertex="1">
          <mxGeometry x="490" y="180" width="40" height="20" as="geometry" />
        </mxCell>
      </root>
    </mxGraphModel>
  </diagram>
</mxfile>
